<svg width="512" height="512" xmlns="http://www.w3.org/2000/svg"><g fill-rule="evenodd"><path fill="#afddaf" d="M258.8 485.5c-.3 0-2.8 0-3.4-.3-.5-.2-1.2-.8-1.7-1.2a13 13 0 0 1-1.8-1.7c-.5-.6-1-1.7-1.4-2.6-.5-1.5-.5-3-.5-24.6 0-20-.1-23-.5-23.4-.2-.3-1.1-.9-2-1.4a68.8 68.8 0 0 1-13.9-12.3 162.8 162.8 0 0 1-13.3-17.5 296.7 296.7 0 0 1-17.4-30.6 1055.9 1055.9 0 0 1-11-24.2 11580 11580 0 0 0-6.4-16.8 595.3 595.3 0 0 1-14.1-45.6 802.8 802.8 0 0 1-7.5-32.6 299 299 0 0 1-2.6-14.6 761 761 0 0 1-4.2-31.4c-.2-2.6-.3-5.2-.2-5.6 0-.5.2-2.8.4-2.8s.9 2.4 1.3 3c.5.6 1.2 1.8 1.5 2.8l2.1 5.3a527.8 527.8 0 0 1 5 11.4 270.3 270.3 0 0 1 4.6 10.8l2.2 5a128.1 128.1 0 0 1 4.6 10.7 3053.8 3053.8 0 0 1 21.9 51.1l2.5 5.8a100 100 0 0 1 4.6 11 2848.1 2848.1 0 0 0 12.7 29.2 272.4 272.4 0 0 1 9 21 621 621 0 0 0 6.5 15.2 166.1 166.1 0 0 0 4.6 10.6 74.7 74.7 0 0 0 3.1 7.2 287.3 287.3 0 0 0 6 13.5c.3 0 .4-11 .4-33.1v-107c0-72.4 0-74.5.5-75.2.5-.6.7-.6 4.5-.6 3.2 0 4 0 4.2.4.1.2.2 57.2.1 145 0 98.8-.2 145-.4 145.5-.2.4.3.5 0 .6Z"/><path fill="#7ec984" d="M250.3 344.5v65.7l-.6.8c-.2 0-.4 0-.6-.3l-1-2.3a152.2 152.2 0 0 0-5.7-13.4 331 331 0 0 1-4.4-10.2l-2.3-5.5a183.6 183.6 0 0 0-6-13.6 336.2 336.2 0 0 0-4.7-11.3 191.4 191.4 0 0 0-4.6-10.6 175 175 0 0 0-4.4-10.4 453.1 453.1 0 0 0-9.3-21.2l-1.4-3.6c-.5-1.3-1.6-4-2.6-6a147 147 0 0 1-4.7-10.9l-2-4.9a117.2 117.2 0 0 0-4.8-11 913.8 913.8 0 0 1-10.3-24.1 3229.9 3229.9 0 0 0-15-34.7 283 283 0 0 0-6.8-15.1l-1-2.2-.5-2.3s-.6-1.4-.2-1.4c.2 0 1.8 1.6 3.6 3.6a312.1 312.1 0 0 1 20.2 24.9 1226.3 1226.3 0 0 1 16.7 23 927.5 927.5 0 0 1 18.4 28.9 444.8 444.8 0 0 1 22 41 608.6 608.6 0 0 1 10.1 22.5l1.9 4.6ZM260.2 485.5h-1.4s-.3-2.8-.3-146.5c0-144 0-144.8.6-145l4-.2c3.1 0 3.6 0 4 .6.6.5.6 1.7.6 74.3a50969 50969 0 0 0 .4 145.6h.3l1.4-3.3a3900.8 3900.8 0 0 1 14.2-36.3 998.6 998.6 0 0 1 8-20.4l2.7-7a433.5 433.5 0 0 0 10-25.7 706.5 706.5 0 0 1 6.6-16.7 2815 2815 0 0 1 18.2-46.4 643645.7 643645.7 0 0 1 9.3-24.1 253.9 253.9 0 0 1 6-15.3 282.7 282.7 0 0 0 6.2-16c1.5-3.5 2.2-5.7 2.3-6.8 0-1.1.2-1.7.7-2 .5-.5.6-.5 1 .1.6.6.6 1 .4 4.3a330.8 330.8 0 0 1-2.4 27.2 540.8 540.8 0 0 1-24.8 109.9 707.7 707.7 0 0 1-8.8 23 418.6 418.6 0 0 1-9.3 20.2 317.9 317.9 0 0 1-9.7 17.8 189.6 189.6 0 0 1-17.2 24 75.5 75.5 0 0 1-9 8.3c-1 .7-2.7 1.8-4 2.4-1.4.8-2.1 1.4-2.3 1.9l-.3 23.2c0 22.6 0 22.6-.7 23.9l-1.4 2.2c-.5.6-1.6 1.4-2.5 2-.9.4-2.2.7-2.8.8Z"/><path fill="#fb727e" d="M255.3 195a62 62 0 0 1-13.2-.8 101.5 101.5 0 0 1-13-2.8 77.2 77.2 0 0 1-17.7-8.3 51.6 51.6 0 0 1-5-3.8c-1.3-1.2-2.8-2.4-3.6-3.7-.6-1-.7-1.5-.8-2.3-.3-1.3-.1-2.6-.3-4.5-.3-2.2-.9-4.7-1-7a145.2 145.2 0 0 1 1.6-31.4 166.5 166.5 0 0 1 3.1-14.3l2-6.4a227.7 227.7 0 0 1 6-15.4 179.4 179.4 0 0 1 8.2-16.4 98.7 98.7 0 0 1 8.8-12.3c1.3-1.4 2.7-3 4-3.8a9 9 0 0 1 2.9-1.4c1-.3 2.1-.3 3.4 0 1.6.3 3 1 4.6 1.7 1.6.8 3.4 2 5 3a100 100 0 0 1 11.7 9.3c1.3 1.2 2.9 2.6 4 3.8 1.4 1.4 2.7 3.1 4 4.6 1.5 1.6 3.4 3.4 4.4 4.8.9 1.1 2 2.8 3 4.5 1.3 2 2.4 4.4 3.4 6.5a184.5 184.5 0 0 1 6.5 14.8 133.7 133.7 0 0 1 5.3 18.2c.5 3.5.6 6.6.6 11 0 3.7 0 7.1-.3 10a55.5 55.5 0 0 1-2.8 12 63.9 63.9 0 0 1-6.5 13.7 50.7 50.7 0 0 1-9.7 10.4 34.7 34.7 0 0 1-18.6 6.3Z"/><path fill="#aeddaf" d="M268.3 415.4c-.1.1-.4-.1-.6-.5-.1-.4-.3-15.9-.3-36.5 0-35.8 0-35.8.5-37l2.3-5.6a946.2 946.2 0 0 1 6.3-15.7l2.7-6.1a333 333 0 0 1 12.7-26.3 808.2 808.2 0 0 1 10.6-19.5 812.5 812.5 0 0 1 16.1-26.3 4654.6 4654.6 0 0 0 9.8-14.7 3532.1 3532.1 0 0 1 11.7-16.1 304.2 304.2 0 0 1 12.5-15.6c.3-.2 1.6-1.6 1.8-1.4.2.2-.8 2.2-.9 2.8 0 .7-.8 2.7-1.6 4.6a97.2 97.2 0 0 0-4.4 11.7L345 219l-2.2 5.5-2.1 5.2c-.6 1.4-1.4 3.3-1.7 4.4a85 85 0 0 1-2.2 6.2 631 631 0 0 0-7.6 19 192.7 192.7 0 0 0-4.4 11.4 142.1 142.1 0 0 0-4.9 12.5 1009.2 1009.2 0 0 1-7.2 18.4 327.7 327.7 0 0 0-5.6 14.4l-2 5a99.6 99.6 0 0 0-3.7 9.6 113.6 113.6 0 0 1-4.2 11 118.7 118.7 0 0 1-3.6 8.7l-1.6 4.2c-.2 1-.8 2.6-1.3 3.8a116.3 116.3 0 0 0-4.3 10.5c-.5 1.3-1.5 3.7-2 5.4l-2.6 6.4a207.5 207.5 0 0 0-5.7 14.7 1677.7 1677.7 0 0 0-7.9 20Z"/><path fill="#fba5a5" d="M205.5 178.5c-.4.3-2.6-2.5-3.7-3.6a47.6 47.6 0 0 1-13.2-30.2 103.6 103.6 0 0 1-.2-20.7 126.3 126.3 0 0 1 4.3-23.7 156 156 0 0 1 9.9-27.4 209 209 0 0 1 6.6-12.8c1-1.8 2.7-4.7 4.3-6.8a55 55 0 0 1 5.7-7c1.8-1.9 3.2-3.1 4.5-3.8 1.4-.6 2-.6 3.5-.6 1.2 0 2.5.6 3.6 1a29.6 29.6 0 0 1 5 2.2l3.3 2.4 4.2 3a113.7 113.7 0 0 1 11.2 10.6 166.6 166.6 0 0 1 13 16l3 4.4 1.8 2.7c.6 1 1.7 2.1 2.2 3 .5 1 2 3.7 1.6 4-.6.3-2.8-3.2-3.8-4.4-1-1.2-2.4-3.3-3.5-4.5a127.2 127.2 0 0 0-13.7-12.8 103 103 0 0 0-11.2-7.3c-1.6-.7-2.8-1.2-4.3-1.3a6 6 0 0 0-3.2.4 16 16 0 0 0-3.7 3 48.6 48.6 0 0 0-7.6 9.2 104.7 104.7 0 0 0-7.4 13 199.7 199.7 0 0 0-6.6 15 234.5 234.5 0 0 0-6.2 19.1 162 162 0 0 0-3 16 168.8 168.8 0 0 0-.8 22.7c.1 2.2.5 5.3 1 7.6.2 2 .6 3.5 1 5.2 0 .8.2 1.7.5 2.5.4 1.2 2.3 3.6 2 3.9Z"/><path fill="#cd2450" d="m268.8 194.8-5.3.1c-1.6 0-4.9.7-5 0-.1-.8 4.6-1.1 6-1.6a40.9 40.9 0 0 0 8-4 45.2 45.2 0 0 0 14.8-18.4 71.7 71.7 0 0 0 5-17.5 72 72 0 0 0-.1-22.2 157.6 157.6 0 0 0-18.6-44.9l-4.3-6.4a235.5 235.5 0 0 0-8.3-11A163.2 163.2 0 0 0 249 56.1c-1.6-1.6-3.6-3.2-4.7-4.3-.9-.8-2-1.5-2.3-2.2-.2-.7 0-.6.4-1.3.4-.6 1.6-1.3 2.5-2.1l4.3-3.5c1.6-1 3.6-2.4 5.2-3.1 1.7-.9 2.7-1.2 3.9-1.3.8 0 2 .2 3 .4 1 .4 2.7 1.4 4.1 2.2 1.5.9 3.1 2.1 4.2 2.9l2.8 2.3c.7.6 1.8 1.3 2.3 2 .6.7 1 .9.9 1.5-.1.8-1.3 1.4-2.8 2.7-1.3 1.2-3.3 2.5-4.3 3.6-1.2 1.4-1.5 1.5-1.4 2.2 0 1 2.3 2.6 4 4.6l5.6 6.3a142.3 142.3 0 0 1 13.4 19.2 190.8 190.8 0 0 1 10.3 20.3 162 162 0 0 1 6 17.5 75.5 75.5 0 0 1-1.3 38.2 57.4 57.4 0 0 1-11.2 19.8c-1.3 1.4-3 3-4 3.8-.8.7-2 1.3-2.8 1.9l-2.2 1.8c-1.2.7-1.6 1-3.8 1.7-1.5.5-3.8.7-5.4 1l-7 .5Z"/><path fill="#f84c68" d="M285.4 192.3c-.7.2-3 1.1-3.2.7-.2-.5 2.4-1.5 3.4-2.3 1-.8 2.2-1.7 3-2.5 1.1-.9 3-2.4 4.4-3.9a54.4 54.4 0 0 0 8.9-12.6 70.2 70.2 0 0 0 5.6-20.3c.3-3.3.6-5.8.5-10.4 0-3.3-.5-6.8-.7-8.4a58.9 58.9 0 0 0-2.2-9.9 117.4 117.4 0 0 0-5.5-15 185 185 0 0 0-10.2-19.8 206.8 206.8 0 0 0-16.2-22.2l-4.6-5c-1-1-2.2-2-2.2-2.7 0-.5.4-1 1-1.7.7-.8 2-1.7 3-2.5l3.1-2.7c.7-.6 1.5-1.3 1.5-1.7 0-.5-1-1.3-2-2.1-1-1-2.4-2-3.1-2.6l-3.5-2.5c-1.3-.8-2.8-1.9-3.8-2.3-1.3-.5-2-.7-3.8-.7a9 9 0 0 0-4.2.9c-1.3.5-3.1 2-4.7 3.1-1.7 1.2-3.7 3-5 4-1.1.9-2.1 2-2.7 2-.5.1-1.1-.3-2-.7a28 28 0 0 1-3.1-2c-.8-.7-1.8-1.2-1.9-1.6 0-.3.2-.9.5-1.4.7-1 3-3.2 5.3-5.5 2.5-2.4 5.6-5.2 7.6-6.7 1.8-1.3 4-2.9 5.7-3.6 2-1 2.9-1.3 4.5-1.3s2.4.3 4.5 1.2c1.6.8 3.8 2.3 5.4 3.4 1.7 1.3 4 3.3 5.7 4.8 1.8 1.6 4 4.2 5.9 5.8 2.6 2.1 2.7 2.5 4 2.6.7 0 1.9-1 3-1.3 1.5-.5 2.4-1 3.9-1 1.3.1 2 .3 3.2.9 1 .5 2.5 2 3.7 3.2a58 58 0 0 1 9 11.8 185.1 185.1 0 0 1 18.6 45.7 186.4 186.4 0 0 1 3.5 20.3 106.2 106.2 0 0 1-1.3 27.6 66.1 66.1 0 0 1-3.8 11.4 54 54 0 0 1-9 13.2 57.2 57.2 0 0 1-26 15.4l-3.7 1Z"/></g></svg>